<?xml version="1.0" encoding="UTF-8"?>
<svg version="1.1" xmlns="http://www.w3.org/2000/svg" width="1106" height="624">
<path d="M0 0 C364.98 0 729.96 0 1106 0 C1106 205.92 1106 411.84 1106 624 C741.02 624 376.04 624 0 624 C0 418.08 0 212.16 0 0 Z " fill="#106DD3" transform="translate(0,0)"/>
<path d="M0 0 C3.60038777 1.64458256 6.97309233 3.60646574 10.375 5.625 C11.37289551 6.20386963 12.37079102 6.78273926 13.39892578 7.37915039 C15.51660246 8.60964763 17.63094779 9.84589323 19.7421875 11.08740234 C22.99606598 12.99769041 26.26165932 14.8862823 29.53125 16.76953125 C31.6462189 17.99152042 33.76081351 19.21415767 35.875 20.4375 C37.34332275 21.28658936 37.34332275 21.28658936 38.84130859 22.15283203 C55.08614716 31.62922074 55.08614716 31.62922074 58 36 C58.26742554 38.79476929 58.26742554 38.79476929 58.29052734 42.22802734 C58.30328705 43.51301117 58.31604675 44.797995 58.32919312 46.12191772 C58.33225074 47.52658945 58.33447852 48.9312632 58.3359375 50.3359375 C58.34236504 51.77698906 58.34909336 53.21803932 58.35610962 54.65908813 C58.36808562 57.68030827 58.37179016 60.70141405 58.37060547 63.72265625 C58.37040235 67.58871974 58.39769461 71.45404753 58.43214989 75.31993675 C58.45442026 78.2968582 58.45844297 81.27360269 58.45738602 84.25059891 C58.45974216 85.67552855 58.46856658 87.10046306 58.48405075 88.52531052 C58.50370784 90.5211715 58.49535089 92.51724847 58.48583984 94.51318359 C58.48868988 95.64774994 58.49153992 96.78231628 58.49447632 97.95126343 C57.88955272 101.68097229 56.59908701 103.30810245 54 106 C51.52075195 107.6940918 51.52075195 107.6940918 48.73828125 109.19921875 C47.19563599 110.04601196 47.19563599 110.04601196 45.62182617 110.90991211 C44.52974854 111.49651611 43.4376709 112.08312012 42.3125 112.6875 C40.04348208 113.93085333 37.77525492 115.17565082 35.5078125 116.421875 C34.39696289 117.02966797 33.28611328 117.63746094 32.14160156 118.26367188 C27.94617437 120.58243766 23.8096424 122.9914676 19.6875 125.4375 C19.01259521 125.83388672 18.33769043 126.23027344 17.64233398 126.63867188 C14.57561982 128.44481613 11.53918654 130.28209673 8.54296875 132.203125 C7.49753906 132.85796875 6.45210938 133.5128125 5.375 134.1875 C4.49585938 134.75855469 3.61671875 135.32960938 2.7109375 135.91796875 C-1.10134029 137.43958395 -3.02222262 137.07485489 -7 136 C-10.60645963 134.31524435 -14.01062885 132.33365522 -17.4375 130.3125 C-18.43015869 129.73814209 -19.42281738 129.16378418 -20.44555664 128.57202148 C-22.55117841 127.35172733 -24.65389889 126.12641525 -26.75390625 124.89648438 C-30.01382341 122.99192387 -33.28626018 121.1106959 -36.5625 119.234375 C-38.68788563 118.01108643 -40.81289679 116.78714697 -42.9375 115.5625 C-43.92484131 114.99635986 -44.91218262 114.43021973 -45.92944336 113.84692383 C-60.93921555 105.1215689 -60.93921555 105.1215689 -63 101 C-63.11724541 98.93355845 -63.16978585 96.86333743 -63.19287109 94.79370117 C-63.20893402 93.48862106 -63.22499695 92.18354095 -63.24154663 90.83891296 C-63.25303344 89.40693817 -63.26364209 87.97495611 -63.2734375 86.54296875 C-63.27876118 85.82289454 -63.28408485 85.10282032 -63.28956985 84.36092567 C-63.31629677 80.54914031 -63.33567256 76.73738764 -63.35009766 72.92553711 C-63.36673983 68.99098186 -63.41151369 65.05726519 -63.4624691 61.12302685 C-63.49614872 58.09551548 -63.50767574 55.06820296 -63.51332474 52.04052162 C-63.52003597 50.59043282 -63.53525509 49.14035704 -63.55921555 47.69045067 C-63.5908741 45.65869177 -63.58790166 43.62648318 -63.58349609 41.59448242 C-63.59158295 40.43913498 -63.5996698 39.28378754 -63.60800171 38.09342957 C-62.70232515 33.48547107 -59.92520807 31.32257424 -56.16088867 28.73657227 C-55.5857251 28.43291748 -55.01056152 28.1292627 -54.41796875 27.81640625 C-53.74507813 27.45321289 -53.0721875 27.09001953 -52.37890625 26.71582031 C-51.29416016 26.14492676 -51.29416016 26.14492676 -50.1875 25.5625 C-48.58587867 24.6965227 -46.98569633 23.82788041 -45.38671875 22.95703125 C-44.5261084 22.48861816 -43.66549805 22.02020508 -42.77880859 21.53759766 C-37.63726462 18.69262806 -32.57111235 15.71813963 -27.5 12.75 C-26.5102417 12.17193604 -25.5204834 11.59387207 -24.50073242 10.99829102 C-23.54142822 10.43682373 -22.58212402 9.87535645 -21.59375 9.296875 C-20.65917969 8.75224609 -19.72460938 8.20761719 -18.76171875 7.64648438 C-16.91195412 6.54368976 -15.08088422 5.40895202 -13.26953125 4.24414062 C-4.80211365 -1.1539963 -4.80211365 -1.1539963 0 0 Z " fill="#1470D4" transform="translate(321,244)"/>
<path d="M0 0 C3.60038777 1.64458256 6.97309233 3.60646574 10.375 5.625 C11.37289551 6.20386963 12.37079102 6.78273926 13.39892578 7.37915039 C15.51660246 8.60964763 17.63094779 9.84589323 19.7421875 11.08740234 C22.99606598 12.99769041 26.26165932 14.8862823 29.53125 16.76953125 C31.6462189 17.99152042 33.76081351 19.21415767 35.875 20.4375 C37.34332275 21.28658936 37.34332275 21.28658936 38.84130859 22.15283203 C55.08614716 31.62922074 55.08614716 31.62922074 58 36 C58.26742554 38.79476929 58.26742554 38.79476929 58.29052734 42.22802734 C58.30328705 43.51301117 58.31604675 44.797995 58.32919312 46.12191772 C58.33225074 47.52658945 58.33447852 48.9312632 58.3359375 50.3359375 C58.34236504 51.77698906 58.34909336 53.21803932 58.35610962 54.65908813 C58.36808562 57.68030827 58.37179016 60.70141405 58.37060547 63.72265625 C58.37040235 67.58871974 58.39769461 71.45404753 58.43214989 75.31993675 C58.45442026 78.2968582 58.45844297 81.27360269 58.45738602 84.25059891 C58.45974216 85.67552855 58.46856658 87.10046306 58.48405075 88.52531052 C58.50370784 90.5211715 58.49535089 92.51724847 58.48583984 94.51318359 C58.48868988 95.64774994 58.49153992 96.78231628 58.49447632 97.95126343 C57.88955272 101.68097229 56.59908701 103.30810245 54 106 C51.52075195 107.6940918 51.52075195 107.6940918 48.73828125 109.19921875 C47.19563599 110.04601196 47.19563599 110.04601196 45.62182617 110.90991211 C44.52974854 111.49651611 43.4376709 112.08312012 42.3125 112.6875 C40.04348208 113.93085333 37.77525492 115.17565082 35.5078125 116.421875 C34.39696289 117.02966797 33.28611328 117.63746094 32.14160156 118.26367188 C27.94617437 120.58243766 23.8096424 122.9914676 19.6875 125.4375 C19.01259521 125.83388672 18.33769043 126.23027344 17.64233398 126.63867188 C14.57561982 128.44481613 11.53918654 130.28209673 8.54296875 132.203125 C7.49753906 132.85796875 6.45210938 133.5128125 5.375 134.1875 C4.49585938 134.75855469 3.61671875 135.32960938 2.7109375 135.91796875 C-1.10134029 137.43958395 -3.02222262 137.07485489 -7 136 C-10.60645963 134.31524435 -14.01062885 132.33365522 -17.4375 130.3125 C-18.43015869 129.73814209 -19.42281738 129.16378418 -20.44555664 128.57202148 C-22.55117841 127.35172733 -24.65389889 126.12641525 -26.75390625 124.89648438 C-30.01382341 122.99192387 -33.28626018 121.1106959 -36.5625 119.234375 C-38.68788563 118.01108643 -40.81289679 116.78714697 -42.9375 115.5625 C-43.92484131 114.99635986 -44.91218262 114.43021973 -45.92944336 113.84692383 C-60.93921555 105.1215689 -60.93921555 105.1215689 -63 101 C-63.11724541 98.93355845 -63.16978585 96.86333743 -63.19287109 94.79370117 C-63.20893402 93.48862106 -63.22499695 92.18354095 -63.24154663 90.83891296 C-63.25303344 89.40693817 -63.26364209 87.97495611 -63.2734375 86.54296875 C-63.27876118 85.82289454 -63.28408485 85.10282032 -63.28956985 84.36092567 C-63.31629677 80.54914031 -63.33567256 76.73738764 -63.35009766 72.92553711 C-63.36673983 68.99098186 -63.41151369 65.05726519 -63.4624691 61.12302685 C-63.49614872 58.09551548 -63.50767574 55.06820296 -63.51332474 52.04052162 C-63.52003597 50.59043282 -63.53525509 49.14035704 -63.55921555 47.69045067 C-63.5908741 45.65869177 -63.58790166 43.62648318 -63.58349609 41.59448242 C-63.59158295 40.43913498 -63.5996698 39.28378754 -63.60800171 38.09342957 C-62.70232515 33.48547107 -59.92520807 31.32257424 -56.16088867 28.73657227 C-55.5857251 28.43291748 -55.01056152 28.1292627 -54.41796875 27.81640625 C-53.74507813 27.45321289 -53.0721875 27.09001953 -52.37890625 26.71582031 C-51.29416016 26.14492676 -51.29416016 26.14492676 -50.1875 25.5625 C-48.58587867 24.6965227 -46.98569633 23.82788041 -45.38671875 22.95703125 C-44.5261084 22.48861816 -43.66549805 22.02020508 -42.77880859 21.53759766 C-37.63726462 18.69262806 -32.57111235 15.71813963 -27.5 12.75 C-26.5102417 12.17193604 -25.5204834 11.59387207 -24.50073242 10.99829102 C-23.54142822 10.43682373 -22.58212402 9.87535645 -21.59375 9.296875 C-20.65917969 8.75224609 -19.72460938 8.20761719 -18.76171875 7.64648438 C-16.91195412 6.54368976 -15.08088422 5.40895202 -13.26953125 4.24414062 C-4.80211365 -1.1539963 -4.80211365 -1.1539963 0 0 Z M-10.04296875 19.7109375 C-11.02700684 20.29198242 -12.01104492 20.87302734 -13.02490234 21.47167969 C-14.59038818 22.41382324 -14.59038818 22.41382324 -16.1875 23.375 C-17.25436035 24.00825195 -18.3212207 24.64150391 -19.42041016 25.29394531 C-21.58637257 26.5798129 -23.75044734 27.86886557 -25.91259766 29.16113281 C-28.69677477 30.81939804 -31.49065081 32.45857642 -34.29296875 34.0859375 C-35.07454346 34.54049316 -35.85611816 34.99504883 -36.66137695 35.46337891 C-38.10576861 36.30290069 -39.55088596 37.14117551 -40.99682617 37.97802734 C-43.59140143 39.4966912 -45.86438371 40.86438371 -48 43 C-48.32666984 45.23424904 -48.32666984 45.23424904 -48.30639648 47.84521484 C-48.32238388 48.85321136 -48.33837128 49.86120789 -48.35484314 50.89974976 C-48.36020584 51.99244171 -48.36556854 53.08513367 -48.37109375 54.2109375 C-48.38012222 55.3306192 -48.3891507 56.4503009 -48.39845276 57.60391235 C-48.41298146 59.97614863 -48.42184847 62.34842522 -48.42553711 64.72070312 C-48.43742978 68.35355081 -48.48658969 71.9846988 -48.53710938 75.6171875 C-48.54657341 77.91926252 -48.55380854 80.221348 -48.55859375 82.5234375 C-48.57812607 83.61208099 -48.59765839 84.70072449 -48.61778259 85.82235718 C-48.72041494 91.66075563 -48.72041494 91.66075563 -45.85644531 96.48730469 C-44.91381836 96.98649414 -43.97119141 97.48568359 -43 98 C-41.52527222 98.90468018 -41.52527222 98.90468018 -40.02075195 99.82763672 C-38.39592896 100.74440186 -38.39592896 100.74440186 -36.73828125 101.6796875 C-35.85223457 102.18255783 -35.85223457 102.18255783 -34.94828796 102.69558716 C-33.07200064 103.75953422 -31.19245113 104.81754261 -29.3125 105.875 C-27.45681531 106.9231384 -25.60186543 107.97254745 -23.74777222 109.02349854 C-22.5386943 109.7077982 -21.32819193 110.38958746 -20.11624146 111.06878662 C-15.70665633 113.55164435 -11.45644894 116.22883738 -7.27026367 119.07080078 C-4.12756124 120.35708161 -2.2489362 119.87145537 1 119 C3.56000403 117.88373674 3.56000403 117.88373674 6.01953125 116.41015625 C6.95192627 115.87753174 7.88432129 115.34490723 8.8449707 114.79614258 C9.82425537 114.22404053 10.80354004 113.65193848 11.8125 113.0625 C12.8233667 112.48072998 13.8342334 111.89895996 14.87573242 111.29956055 C17.92259679 109.54224443 20.96167189 107.77202359 24 106 C25.73935476 104.9943962 27.47892182 103.98915949 29.21875 102.984375 C30.75056632 102.09472438 32.28185269 101.2041604 33.8125 100.3125 C34.51673096 99.90330322 35.22096191 99.49410645 35.9465332 99.07250977 C38.5536227 97.53779372 40.85132909 96.14867091 43 94 C43.35412217 91.78117969 43.35412217 91.78117969 43.36987305 89.18652344 C43.41322029 87.68421173 43.41322029 87.68421173 43.45744324 86.15155029 C43.47535416 85.06513245 43.49326508 83.9787146 43.51171875 82.859375 C43.5394915 81.18696747 43.5394915 81.18696747 43.56782532 79.48077393 C43.59991279 77.11697952 43.6255402 74.75309006 43.64526367 72.38916016 C43.67334171 69.96990452 43.72108552 67.55079449 43.78881836 65.13232422 C43.88626747 61.64464671 43.92429831 58.16073691 43.94921875 54.671875 C43.98939621 53.59355408 44.02957367 52.51523315 44.07096863 51.40423584 C44.10279907 45.71262707 44.10279907 45.71262707 41.1696167 41.08267212 C38.84789115 39.50680958 36.5181837 38.23381598 34 37 C32.83460495 36.31306447 31.67365209 35.61848827 30.51904297 34.91357422 C29.43768066 34.3001416 28.35631836 33.68670898 27.2421875 33.0546875 C26.35395798 32.54894699 26.35395798 32.54894699 25.44778442 32.0329895 C23.59193639 30.97721477 21.73355754 29.92599607 19.875 28.875 C18.01365215 27.81780087 16.15282217 26.75969471 14.29205322 25.70147705 C12.54380436 24.70899056 10.79293587 23.72112296 9.04199219 22.73339844 C6.63091496 21.35951013 4.25580015 19.94525894 1.8828125 18.5078125 C-2.97484757 15.96708514 -5.63106082 17.07847611 -10.04296875 19.7109375 Z " fill="#FBFCFE" transform="translate(321,244)"/>
<path d="M0 0 C5.28 0 10.56 0 16 0 C19.89776857 15.27925279 23.44175045 30.6389227 27 46 C30.88709676 30.71330254 34.57509242 15.39692965 38 0 C43.28 0 48.56 0 54 0 C54.49197876 1.99148071 54.49197876 1.99148071 54.99389648 4.02319336 C56.2073064 8.93097822 57.42532854 13.83760847 58.64477539 18.74389648 C59.17273603 20.8708608 59.69943144 22.99813958 60.22485352 25.12573242 C60.97863681 28.17709835 61.73690643 31.22731851 62.49609375 34.27734375 C62.73154404 35.23462875 62.96699432 36.19191376 63.20957947 37.1782074 C63.42973221 38.05904495 63.64988495 38.93988251 63.87670898 39.84741211 C64.06990219 40.62684677 64.2630954 41.40628143 64.46214294 42.20933533 C64.84745859 44.00539298 64.84745859 44.00539298 66 45 C66.34611328 43.34291016 66.34611328 43.34291016 66.69921875 41.65234375 C68.66546652 32.26179795 70.6602575 22.87757397 72.6875 13.5 C72.90172607 12.50347412 73.11595215 11.50694824 73.33666992 10.48022461 C73.53881104 9.54831299 73.74095215 8.61640137 73.94921875 7.65625 C74.12799561 6.82931641 74.30677246 6.00238281 74.4909668 5.15039062 C75 3 75 3 76 0 C80.95 0 85.9 0 91 0 C89.87300094 7.88899341 89.87300094 7.88899341 88.984375 11.4609375 C88.78779297 12.25306641 88.59121094 13.04519531 88.38867188 13.86132812 C88.17791016 14.69083984 87.96714844 15.52035156 87.75 16.375 C87.52892578 17.25349609 87.30785156 18.13199219 87.08007812 19.03710938 C85.4960609 25.25202116 83.74225514 31.40041068 81.88256836 37.53759766 C79.92401574 44.07329469 78.28591382 50.6796422 76.69921875 57.31445312 C76.50585938 58.11302734 76.3125 58.91160156 76.11328125 59.734375 C75.86251831 60.78963379 75.86251831 60.78963379 75.60668945 61.86621094 C74.91430511 64.30139771 73.94025167 66.64937083 73 69 C68.05 69 63.1 69 58 69 C54.04 52.83 50.08 36.66 46 20 C41.10011298 38.67454501 41.10011298 38.67454501 36.625 57.4375 C36.36589844 58.57380859 36.10679687 59.71011719 35.83984375 60.88085938 C35.22336567 63.58651318 34.61115671 66.29313924 34 69 C29.05 69 24.1 69 19 69 C18.14728516 65.93525391 18.14728516 65.93525391 17.27734375 62.80859375 C16.49875051 60.01784979 15.71827896 57.22763318 14.9375 54.4375 C14.73469421 53.71226135 14.53188843 52.98702271 14.32293701 52.23980713 C11.71076123 42.91193394 9.0065065 33.62398709 6.125 24.375 C3.61291743 16.29751398 1.58717227 8.30931367 0 0 Z " fill="#FAFCFE" transform="translate(394,278)"/>
<path d="M0 0 C4.29 0 8.58 0 13 0 C13 7.92 13 15.84 13 24 C13.66 24 14.32 24 15 24 C15.33 23.01 15.66 22.02 16 21 C20.64992717 17.3699002 25.75557578 16.35048736 31.54296875 16.6171875 C37.12730092 17.48724243 40.81331136 19.83968222 44.8125 23.75 C50.94417907 32.85992318 51.23935037 42.21274852 49.53125 52.9453125 C47.83067759 59.56539794 44.73402835 64.34521613 39.1484375 68.31640625 C34.24375322 71.12047874 29.578104 71.98950714 24 71 C20.12319721 69.57695403 16.92740369 67.92740369 14 65 C13.67 66.32 13.34 67.64 13 69 C8.71 69 4.42 69 0 69 C0 46.23 0 23.46 0 0 Z " fill="#FCFDFE" transform="translate(695,278)"/>
<path d="M0 0 C0 14.19 0 28.38 0 43 C6.69549177 39.02170289 6.69549177 39.02170289 13.37182617 35.01147461 C14.63216675 34.27682983 14.63216675 34.27682983 15.91796875 33.52734375 C17.19837036 32.76538696 17.19837036 32.76538696 18.50463867 31.98803711 C21.5604087 30.77810644 22.90458797 30.98042116 26 32 C28.31176758 33.12329102 28.31176758 33.12329102 30.64453125 34.50390625 C31.40354736 34.94806885 32.16256348 35.39223145 32.94458008 35.84985352 C33.89099365 36.41502686 34.83740723 36.9802002 35.8125 37.5625 C38.844375 39.356875 41.87625 41.15125 45 43 C45 28.81 45 14.62 45 0 C59 8 59 8 60 9 C60.39012056 15.03497935 60.48526289 21.07129658 60.56982422 27.11743164 C60.60645446 29.15559662 60.66099567 31.19352239 60.73388672 33.23071289 C60.83747033 36.16900286 60.8817754 39.1031329 60.9140625 42.04296875 C60.95737701 42.94943649 61.00069153 43.85590424 61.0453186 44.7898407 C61.03733958 47.47427721 60.92282881 49.47469096 60 52 C57.28259523 54.59522642 54.30928358 56.26255628 51 58 C50.0925 58.66 49.185 59.32 48.25 60 C46 61 46 61 43.86328125 60.34765625 C39.35645032 58.22643296 35.09655439 55.69514426 30.79492188 53.18945312 C30.10849609 52.79564453 29.42207031 52.40183594 28.71484375 51.99609375 C28.09730225 51.63700928 27.47976074 51.2779248 26.84350586 50.90795898 C24.80369697 49.90331731 23.27201647 49.23566056 21 49 C18.71141077 49.99493589 18.71141077 49.99493589 16.4453125 51.59765625 C15.58292969 52.15130859 14.72054688 52.70496094 13.83203125 53.27539062 C12.03097776 54.4643978 10.23406371 55.65969965 8.44140625 56.86132812 C1.84839701 61.07161793 1.84839701 61.07161793 -2.0078125 60.74609375 C-2.99523437 60.16988281 -3.98265625 59.59367187 -5 59 C-5.84594727 58.77304443 -6.69189453 58.54608887 -7.56347656 58.31225586 C-11.11323031 57.02220358 -12.68847556 56.02832719 -15 53 C-16.77190622 45.60753553 -15.92966005 37.65067817 -15.625 30.125 C-15.5748214 27.98447801 -15.52919713 25.84384408 -15.48828125 23.703125 C-15.37825856 18.46630388 -15.21113922 13.23366723 -15 8 C-12.6889639 6.66407203 -10.37628245 5.33115569 -8.0625 4 C-7.40314453 3.6184375 -6.74378906 3.236875 -6.06445312 2.84375 C-1.11328125 0 -1.11328125 0 0 0 Z " fill="#FBFCFE" transform="translate(296,282)"/>
<path d="M0 0 C5.20182956 3.661135 8.24639961 8.60798012 9.55859375 14.80078125 C10.37174626 23.5789095 10.47661674 32.18889736 5.55859375 39.80078125 C0.37240902 45.84750548 -5.36006373 49.09343527 -13.19140625 50.18359375 C-21.33090122 50.67111558 -27.75463991 48.44325005 -34.44140625 43.80078125 C-41.19239784 36.24722423 -42.22405978 28.52105399 -41.8515625 18.72265625 C-41.09553383 11.4935821 -38.37454072 6.28798389 -33.06640625 1.36328125 C-22.50383613 -6.60378552 -11.50414344 -6.04084601 0 0 Z " fill="#F9FBFE" transform="translate(790.44140625,299.19921875)"/>
<path d="M0 0 C5.77793089 3.85195393 7.84207765 7.36023893 10 14 C10 18.29 10 22.58 10 27 C-1.55 27 -13.1 27 -25 27 C-22.84013405 35.17319519 -22.84013405 35.17319519 -20.375 38.0625 C-16.60324628 39.55135015 -12.98803174 39.68177748 -9 39 C-6.49839182 37.12379387 -5.38054348 35.76108697 -4 33 C0.29 33 4.58 33 9 33 C8.56486181 38.43922743 7.60096721 41.84503784 4 46 C-3.52575556 50.85233521 -11.14986293 51.94822897 -20 51 C-26.83134003 48.87236197 -32.18162789 45.08875553 -36 39 C-39.87607733 31.55525837 -38.98717027 20.82944978 -37.34765625 12.80859375 C-34.77325155 5.57153334 -30.2893673 1.97362038 -23.875 -1.875 C-16.28402857 -4.76025611 -6.92334444 -4.09748956 0 0 Z " fill="#F8FBFD" transform="translate(519,298)"/>
<path d="M0 0 C4.62 0 9.24 0 14 0 C14.33 7.59 14.66 15.18 15 23 C17.97 20.525 17.97 20.525 21 18 C26.80230769 16.06589744 32.84037092 16.11696665 38.4375 18.6875 C42.39198922 20.94379123 44.27034786 23.51597786 45.55931091 27.90411377 C46.00331971 30.0157883 46.12052182 31.87928033 46.11352539 34.03417969 C46.11344986 34.81468689 46.11337433 35.59519409 46.11329651 36.39935303 C46.10813522 37.23178528 46.10297394 38.06421753 46.09765625 38.921875 C46.0962413 39.78186096 46.09482635 40.64184692 46.09336853 41.52789307 C46.08778097 44.26863109 46.07523075 47.00928676 46.0625 49.75 C46.05748339 51.6106759 46.05292077 53.47135309 46.04882812 55.33203125 C46.03781561 59.88805246 46.02055951 64.44401228 46 69 C41.38 69 36.76 69 32 69 C31.505 49.695 31.505 49.695 31 30 C22.68729536 28.23343009 22.68729536 28.23343009 18.5 30.8125 C15.96713257 32.7502075 15.96713257 32.7502075 15 35 C14.84355828 37.55106029 14.74178611 40.07918663 14.68359375 42.6328125 C14.66281265 43.38464813 14.64203156 44.13648376 14.62062073 44.91110229 C14.55517295 47.31564085 14.49626262 49.72028967 14.4375 52.125 C14.39431023 53.75391771 14.35069579 55.38282422 14.30664062 57.01171875 C14.19949649 61.00769915 14.09821567 65.00379059 14 69 C9.38 69 4.76 69 0 69 C0 46.23 0 23.46 0 0 Z " fill="#F8FBFD" transform="translate(643,278)"/>
<path d="M0 0 C4.53659737 2.39202407 7.50726312 4.64437926 9.55810547 9.42431641 C10.64520666 13.61276459 10.68834588 17.40582734 10.6328125 21.7109375 C10.6299826 22.54589752 10.62715271 23.38085754 10.62423706 24.24111938 C10.61310301 26.89006291 10.58801127 29.53865984 10.5625 32.1875 C10.55246143 33.99088051 10.54333712 35.79426636 10.53515625 37.59765625 C10.5131859 42.00273633 10.47870321 46.40755953 10.4375 50.8125 C6.1475 50.8125 1.8575 50.8125 -2.5625 50.8125 C-2.8925 49.4925 -3.2225 48.1725 -3.5625 46.8125 C-4.9546875 47.7715625 -4.9546875 47.7715625 -6.375 48.75 C-12.43498263 52.67116523 -18.5262875 52.43563321 -25.5625 51.8125 C-30.21821086 49.64518633 -32.26435988 47.324623 -34.5625 42.8125 C-35.40754602 38.00425366 -35.61248921 33.0834994 -33.53125 28.58203125 C-29.84455997 23.77909341 -25.30545909 22.1699267 -19.5625 20.8125 C-18.95148437 20.62558594 -18.34046875 20.43867188 -17.7109375 20.24609375 C-14.72460134 19.64339682 -11.85514289 19.71957357 -8.8125 19.75 C-7.05679688 19.76353516 -7.05679688 19.76353516 -5.265625 19.77734375 C-4.37359375 19.78894531 -3.4815625 19.80054688 -2.5625 19.8125 C-2.8414024 14.96125329 -2.8414024 14.96125329 -5.1875 10.875 C-9.52513475 8.93447919 -14.10093093 9.3847979 -18.5625 10.8125 C-18.8925 12.1325 -19.2225 13.4525 -19.5625 14.8125 C-24.07867599 14.88904536 -28.15335217 14.91478696 -32.5625 13.8125 C-31.55369125 8.20800696 -29.89990019 5.67351364 -25.51171875 2.07421875 C-18.22479958 -2.6425646 -8.13024262 -2.73076851 0 0 Z " fill="#FAFCFE" transform="translate(568.5625,296.1875)"/>
<path d="M0 0 C11.10118134 -1.31934808 11.10118134 -1.31934808 16 0 C19.49192981 3.16927758 21.36282855 6.60340249 23 11 C23 11.66 23 12.32 23 13 C25.17531696 11.07568115 26.82774043 9.35240427 28.109375 6.73046875 C29.52724966 3.95160947 30.64297058 2.06673352 33 0 C37.75214034 -0.79025548 42.22711506 -0.52959408 47 0 C45.59290322 4.01095112 43.67407059 7.04675516 41.125 10.4375 C40.41730469 11.3965625 39.70960938 12.355625 38.98046875 13.34375 C37.84321689 14.86905822 36.70225195 16.39164702 35.55078125 17.90625 C33.49282231 20.59840195 33.49282231 20.59840195 33.21484375 23.83935547 C34.19592359 26.5391554 35.5633553 28.72075423 37.125 31.1328125 C37.74890625 32.10347656 38.3728125 33.07414062 39.015625 34.07421875 C39.67046875 35.08097656 40.3253125 36.08773437 41 37.125 C42.29236748 39.12715198 43.58406825 41.12973451 44.875 43.1328125 C45.44992187 44.01855957 46.02484375 44.90430664 46.6171875 45.81689453 C48 48 48 48 49 50 C38.06702163 51.69025187 38.06702163 51.69025187 33 50 C29.53366751 47.03967841 27.61901453 43.07899384 25.6015625 39.0625 C25.07304688 38.051875 24.54453125 37.04125 24 36 C23.34 36 22.68 36 22 36 C21.11621988 37.65366017 20.23697084 39.30995372 19.38452148 40.97998047 C14.96320718 49.31110198 14.96320718 49.31110198 11.11035156 50.66308594 C6.68275881 51.24170385 2.39531668 50.72965731 -2 50 C1.09484716 44.97855924 4.18386774 40.01966077 7.76171875 35.328125 C8.22529785 34.71275879 8.68887695 34.09739258 9.16650391 33.46337891 C10.0872299 32.25088035 11.02292655 31.04958626 11.97412109 29.86083984 C13.44545484 27.99332078 13.44545484 27.99332078 15 25 C14.23602798 20.92137519 11.67813704 18.00735323 9.1875 14.75 C5.67014927 10.02816487 2.68773091 5.23332221 0 0 Z " fill="#FAFCFE" transform="translate(799,297)"/>
<path d="M0 0 C4.62 0 9.24 0 14 0 C14 4.29 14 8.58 14 13 C17.96 13 21.92 13 26 13 C26 16.63 26 20.26 26 24 C22.04 24 18.08 24 14 24 C14.495 38.355 14.495 38.355 15 53 C18.63 53.33 22.26 53.66 26 54 C26.495 58.95 26.495 58.95 27 64 C23.96843143 65.51578428 21.12033386 65.24971927 17.75 65.3125 C16.44546875 65.34988281 15.1409375 65.38726562 13.796875 65.42578125 C9.43431661 64.93656431 7.374349 63.74761256 4 61 C0.53836605 56.1059658 -0.1235169 52.28536975 -0.09765625 46.36328125 C-0.09443359 45.06455078 -0.09121094 43.76582031 -0.08789062 42.42773438 C-0.07953531 41.05598892 -0.07107037 39.68424413 -0.0625 38.3125 C-0.05748335 36.92903805 -0.05292073 35.54557437 -0.04882812 34.16210938 C-0.03702529 30.77469605 -0.02056019 27.38736967 0 24 C-2.64 24 -5.28 24 -8 24 C-8 20.37 -8 16.74 -8 13 C-5.36 13 -2.72 13 0 13 C0 8.71 0 4.42 0 0 Z " fill="#F5F9FD" transform="translate(611,283)"/>
<path d="M0 0 C4.62 0 9.24 0 14 0 C14 22.77 14 45.54 14 69 C9.38 69 4.76 69 0 69 C0 46.23 0 23.46 0 0 Z " fill="#F7FAFD" transform="translate(586,278)"/>
<path d="M0 0 C3.35813187 1.34325275 4.69448242 2.57859645 6.8125 5.5 C9.18919962 12.5050094 8.789441 20.16586955 6 27 C4.08641287 29.27238472 2.64405865 30.67797068 0 32 C-4.96134453 32.3744411 -8.11322241 32.23898133 -12 29 C-14.69170882 24.53982549 -15.40910995 21.18471225 -15.375 16 C-15.38273438 14.824375 -15.39046875 13.64875 -15.3984375 12.4375 C-14.87096338 7.88674292 -13.37851904 4.53168782 -10.3125 1.125 C-6.8997595 -0.53525213 -3.67985885 -0.52778852 0 0 Z " fill="#1571D4" transform="translate(778,306)"/>
<path d="M0 0 C3.27337055 1.33910613 4.7057242 2.60424979 6.8125 5.4375 C8.88536588 11.65609763 9.16225726 18.78321365 6.8125 25 C4.81038452 28.3138463 3.37117029 30.08456233 0 32 C-4.56510107 32.74701654 -6.39733189 32.38661728 -10.3125 29.875 C-15.20228647 24.64406563 -15.39993266 19.527367 -15.25 12.62109375 C-14.79096405 7.80838872 -13.01185608 5.06807031 -9.75 1.625 C-6.19452499 -0.47596251 -4.07335802 -0.50916975 0 0 Z " fill="#1672D5" transform="translate(723,306)"/>
<path d="M0 0 C0.98484375 0.00902344 1.9696875 0.01804687 2.984375 0.02734375 C4.10585938 0.04474609 4.10585938 0.04474609 5.25 0.0625 C5.56578947 7.00986842 5.56578947 7.00986842 3.25 10.0625 C-1.53509267 13.25256178 -5.17889 13.61047803 -10.75 13.0625 C-12.75 11.9375 -12.75 11.9375 -13.75 10.0625 C-14.1875 7.0625 -14.1875 7.0625 -13.75 4.0625 C-9.83325359 0.00586979 -5.38112413 -0.064061 0 0 Z " fill="#1571D4" transform="translate(560.75,324.9375)"/>
<path d="M0 0 C3.5386994 1.65139305 4.81070153 2.71605229 7 6 C7 7.65 7 9.3 7 11 C0.07 11 -6.86 11 -14 11 C-13 4 -13 4 -10.375 1.5625 C-6.49658565 -0.2330622 -4.2264206 -0.53790808 0 0 Z " fill="#1772D5" transform="translate(509,305)"/>
</svg>
